{"title":"The Thaw 2009 BRRIP ESUB Dual Audio English Hindi GOPI SAHI","uid":10301556,"size":718077282,"categoryP":"video","categoryS":"movies","magnet":"?xt=urn:btih:14d9b28f658cc3f00fc5db3982d2bf1afe99f6dc&amp;dn=The+Thaw+2009+BRRIP+ESUB+Dual+Audio+English+Hindi+GOPI+SAHI&amp;tr=udp%3A%2F%2Ftracker.openbittorrent.com%3A80&amp;tr=udp%3A%2F%2Fopen.demonii.com%3A1337&amp;tr=udp%3A%2F%2Ftracker.coppersurfer.tk%3A6969&amp;tr=udp%3A%2F%2Fexodus.desync.com%3A6969","seeders":1,"leechers":1,"uploader":"jatt13","files":1,"time":1401979500,"description":" &lt;a href=&quot;http://www.imdb.com/title/tt1235448/&quot; rel=&quot;nofollow&quot; target=&quot;_NEW&quot;&gt;http://www.imdb.com/title/tt1235448/&lt;/a&gt;\nVideo\nID                             : 1\nFormat                         : AVC\nFormat/Info                    : Advanced Video Codec\nFormat profile                 : &lt;a class=&quot;__cf_email__&quot; href=&quot;/cdn-cgi/l/email-protection&quot; data-cfemail=&quot;ca82a3ada28a86f9e4fb&quot;&gt;[email&amp;#160;protected]&lt;/a&gt;&lt;script cf-hash='f9e31' type=&quot;text/javascript&quot;&gt;\n/* &lt;![CDATA[ */!function(){try{var t=&quot;currentScript&quot;in document?document.currentScript:function(){for(var t=document.getElementsByTagName(&quot;script&quot;),e=t.length;e--;)if(t[e].getAttribute(&quot;cf-hash&quot;))return t[e]}();if(t&amp;&amp;t.previousSibling){var e,r,n,i,c=t.previousSibling,a=c.getAttribute(&quot;data-cfemail&quot;);if(a){for(e=&quot;&quot;,r=parseInt(a.substr(0,2),16),n=2;a.length-n;n+=2)i=parseInt(a.substr(n,2),16)^r,e+=String.fromCharCode(i);e=document.createTextNode(e),c.parentNode.replaceChild(e,c)}}}catch(u){}}();/* ]]&gt; */&lt;/script&gt;\nFormat settings, CABAC         : Yes\nFormat settings, ReFrames      : 4 frames\nCodec ID                       : V_MPEG4/ISO/AVC\nDuration                       : 1h 33mn\nBit rate                       : 825 Kbps\nWidth                          : 1 280 pixels\nHeight                         : 534 pixels\nDisplay aspect ratio           : 2.40:1\nFrame rate mode                : Constant\nFrame rate                     : 24.000 fps\nColor space                    : YUV\nChroma subsampling             : 4:2:0\nBit depth                      : 8 bits\nScan type                      : Progressive\nBits/(Pixel*Frame)             : 0.050\nStream size                    : 542 MiB (79%)\nTitle                          : GOPI SAHI\nWriting library                : x264 core 116 r2074 2641b9e\nEncoding settings              : cabac=1 / ref=1 / deblock=1:-2:-1 / analyse=0x3:0x113 /0\nLanguage                       : English\nDefault                        : Yes\nForced                         : No\n\nAudio #1\nID                             : 2\nFormat                         : MPEG Audio\nFormat version                 : Version 1\nFormat profile                 : Layer 3\nMode                           : Joint stereo\nMode extension                 : MS Stereo\nCodec ID                       : A_MPEG/L3\nCodec ID/Hint                  : MP3\nDuration                       : 1h 33mn\nBit rate mode                  : Constant\nBit rate                       : 96.0 Kbps\nChannel count                  : 2 channels\nSampling rate                  : 48.0 KHz\nCompression mode               : Lossy\nStream size                    : 64.5 MiB (9%)\nTitle                          : GOPI SAHI\nWriting library                : LAME3.98.4\nLanguage                       : English\nDefault                        : Yes\nForced                         : No\n\nAudio #2\nID                             : 3\nFormat                         : MPEG Audio\nFormat version                 : Version 1\nFormat profile                 : Layer 3\nMode                           : Joint stereo\nMode extension                 : MS Stereo\nCodec ID                       : A_MPEG/L3\nCodec ID/Hint                  : MP3\nDuration                       : 1h 33mn\nBit rate mode                  : Constant\nBit rate                       : 96.0 Kbps\nChannel count                  : 2 channels\nSampling rate                  : 48.0 KHz\nCompression mode               : Lossy\nStream size                    : 64.5 MiB (9%)\nTitle                          : GOPI SAHI\nWriting library                : LAME3.98.4\nLanguage                       : Hindi\nDefault                        : No\nForced                         : No\n[IMG]http://i.imgur.com/jj6xq6u.jpg[/IMG]\n[IMG]http://i.imgur.com/PpYgo5c.jpg[/IMG]\n[IMG]http://i.imgur.com/MEZN2wY.jpg[/IMG]\n[IMG]http://i.imgur.com/Nelcm7S.jpg[/IMG]\n[IMG]http://i.imgur.com/H9wXZ82.jpg[/IMG]\n","torrent":{"xt":"urn:btih:14d9b28f658cc3f00fc5db3982d2bf1afe99f6dc","amp;dn":"The+Thaw+2009+BRRIP+ESUB+Dual+Audio+English+Hindi+GOPI+SAHI","amp;tr":["udp%3A%2F%2Ftracker.openbittorrent.com%3A80","udp%3A%2F%2Fopen.demonii.com%3A1337","udp%3A%2F%2Ftracker.coppersurfer.tk%3A6969","udp%3A%2F%2Fexodus.desync.com%3A6969"],"infoHash":"14d9b28f658cc3f00fc5db3982d2bf1afe99f6dc","infoHashBuffer":{"type":"Buffer","data":[20,217,178,143,101,140,195,240,15,197,219,57,130,210,191,26,254,153,246,220]},"announce":[],"urlList":[]}}